
<svg version="1.1" id="Layer_1" xmlns="http://www.w3.org/2000/svg" xmlns:xlink="http://www.w3.org/1999/xlink" x="0px" y="0px"
	 width="26px" height="26px" viewBox="0 0 26 26" enable-background="new 0 0 26 26" xml:space="preserve">
<g opacity="0.9">
	<path fill="#FFFFFF" d="M4.512,4.464c2.33-2.356,5.152-3.534,8.467-3.534s6.137,1.178,8.467,3.534s3.495,5.198,3.495,8.526
		c0,3.295-1.173,6.12-3.52,8.476S16.261,25,12.979,25s-6.096-1.178-8.442-3.534s-3.52-5.181-3.52-8.476
		C1.017,9.662,2.182,6.82,4.512,4.464z"/>
</g>
<g>
	<path fill="none" stroke="#9A9999" stroke-width="1.1744" stroke-miterlimit="10" d="M4.512,4.464
		c2.33-2.356,5.152-3.534,8.467-3.534s6.137,1.178,8.467,3.534s3.495,5.198,3.495,8.526c0,3.295-1.173,6.12-3.52,8.476
		S16.261,25,12.979,25s-6.096-1.178-8.442-3.534s-3.52-5.181-3.52-8.476C1.017,9.662,2.182,6.82,4.512,4.464z"/>
</g>
<polygon fill="#9A9999" points="12.684,8.69 18.197,13.78 17.065,14.868 12.684,10.914 8.253,14.868 7.17,13.78 "/>
<path fill="none" stroke="#AB549B" stroke-miterlimit="10" d="M24.941,12.99"/>
</svg>
